<svg xmlns="http://www.w3.org/2000/svg" viewBox="0 0 48.62 48.62">
  <style type="text/css">
    .fil0 {fill:#1D6354}
    .fil1 {fill:#FEFEFE;fill-rule:nonzero}
  </style>
 <g>
  <path class="fil0" d="M24.31 48.62c13.43,0 24.31,-10.88 24.31,-24.31 0,-13.43 -10.88,-24.31 -24.31,-24.31 -13.43,0 -24.31,10.88 -24.31,24.31 0,13.43 10.88,24.31 24.31,24.31z"/>
  <path class="fil1" d="M14.46 9.36l-4.14 0 0 -1.02 13.63 0 0 1.02 -4.15 0 0 13.95 2.86 0 0.09 0c0.19,0 0.44,-0.02 0.76,-0.05 0.32,-0.03 0.66,-0.1 1.01,-0.23 0.36,-0.12 0.71,-0.32 1.06,-0.6 0.36,-0.27 0.67,-0.67 0.95,-1.19 0.27,-0.52 0.47,-1.23 0.57,-2.12 0.11,-0.89 0.16,-1.64 0.16,-2.26l0 -2.02c0,-0.46 0.02,-0.97 0.05,-1.52 0.03,-0.56 0.11,-1.11 0.23,-1.66 0.12,-0.55 0.31,-1.08 0.55,-1.59 0.25,-0.51 0.59,-0.94 1.02,-1.31 0.3,-0.28 0.73,-0.53 1.26,-0.76 0.54,-0.23 1.21,-0.35 2.01,-0.35 0.55,0 1.09,0.07 1.63,0.21 0.54,0.14 1.01,0.36 1.43,0.67 0.41,0.3 0.75,0.69 1.01,1.15 0.26,0.46 0.39,1.01 0.39,1.66 0,1.26 -0.33,2.17 -0.99,2.74 -0.66,0.56 -1.37,0.85 -2.14,0.85 -0.74,0 -1.42,-0.26 -2.05,-0.78 -0.63,-0.53 -0.94,-1.29 -0.94,-2.31 0,-0.33 0.04,-0.69 0.14,-1.06 0.09,-0.36 0.23,-0.67 0.41,-0.92 0.15,-0.27 0.31,-0.46 0.46,-0.55 0.15,-0.09 0.23,-0.18 0.23,-0.28 0,-0.06 -0.06,-0.13 -0.18,-0.23 -0.13,-0.09 -0.29,-0.13 -0.51,-0.13 -0.25,0 -0.55,0.08 -0.92,0.25 -0.37,0.17 -0.72,0.51 -1.06,1.03 -0.49,0.74 -0.78,1.49 -0.88,2.24 -0.09,0.75 -0.13,1.48 -0.13,2.19l0 0.36 0 1.75c0,2.03 -0.23,3.61 -0.69,4.75 -0.46,1.13 -1.25,1.9 -2.35,2.3l0 0.28c1.29,0.06 2.4,0.22 3.34,0.48 0.93,0.26 1.73,0.61 2.39,1.04 0.66,0.43 1.2,0.91 1.61,1.45 0.42,0.53 0.75,1.09 0.99,1.68 0.31,0.73 0.51,1.56 0.6,2.46 0.09,0.91 0.17,1.96 0.23,3.16 0.06,1.41 0.14,2.41 0.23,2.99 0.09,0.58 0.22,1.04 0.37,1.38 0.34,0.65 0.72,1.04 1.15,1.17 0.43,0.14 0.91,0.21 1.43,0.21l0.87 -0.04 0 1.01c-0.21,0.03 -0.47,0.05 -0.78,0.07 -0.31,0.01 -0.63,0.02 -0.97,0.02 -0.55,0 -1.14,-0.03 -1.77,-0.09 -0.63,-0.06 -1.23,-0.18 -1.82,-0.35 -0.58,-0.17 -1.13,-0.38 -1.63,-0.64 -0.51,-0.26 -0.92,-0.59 -1.22,-0.99 -0.86,-1.04 -1.38,-3.03 -1.57,-5.94 -0.06,-0.74 -0.1,-1.38 -0.11,-1.94 -0.02,-0.55 -0.04,-1.05 -0.07,-1.49 -0.03,-0.45 -0.09,-0.85 -0.16,-1.22 -0.08,-0.37 -0.18,-0.72 -0.3,-1.06 -0.28,-0.68 -0.62,-1.21 -1.02,-1.59 -0.4,-0.38 -0.8,-0.67 -1.22,-0.85 -0.41,-0.19 -0.8,-0.3 -1.15,-0.35 -0.35,-0.04 -0.63,-0.07 -0.85,-0.07l-4.01 0 0 15.25 4.15 -0.05 0 1.06 -13.63 0 0 -1.01 4.14 -0.05 0 -30.16z"/>
  </g>
</svg>
