<svg xmlns="http://www.w3.org/2000/svg" viewBox="0 0 150 190">

    <path
        d="M89.51,150.55a97.6,97.6,0,0,1-5.27-12.86l-52.94.58s-.53-62-.53-66.67,1.12-8.21,7.87-8.21S80.74,63,85.48,63c5.84,0,6.77,4.06,6.8,8.56,0,2.84.07,13.7.07,13.7L88,85.44l0,7.8,4.27.34,6.3-3.28,6.71,2.52,6.25-3,5.54-.6s3.06,29.42,14.56,55.79Zm-46-19.06,38.58.11v-.91a275.07,275.07,0,0,1-7.48-36.84l5-1.26,2.13.16-.06-7.3-38.76-.2ZM78.76,69.3a4.83,4.83,0,0,0-4.7,3.23l-14.3-.35a4.81,4.81,0,0,0-4.58-2.88c-6.56,0-7.12,10.52.46,10.52A4.41,4.41,0,0,0,60,76.68l14-.34a5.11,5.11,0,0,0,5.25,3.48C85.61,79.82,85.44,69.3,78.76,69.3Zm33.8,25.52-6.72,3.71-8.13-1.87-5.84,2.75L80.68,98.33s2.84,24.51,12.69,46.52c.12.28,31.29-4.08,31.29-4.08C114.25,120.29,112.56,94.82,112.56,94.82ZM98.81,116.37l-4.4,2.48-2.5-3.77,7.59-9.27,4.12.28s2.48,18.21,6.11,27l-6.3,1.16C100.64,125,98.81,116.37,98.81,116.37Zm-46.07,1.87C57.15,114.61,66,107,65.69,102.35c-.13-2.24-1.76-4-3.78-3.92a6.73,6.73,0,0,0-5.23,3.34l-3.89-3.53A10.26,10.26,0,0,1,62,92a9.51,9.51,0,0,1,10.36,9.1c.32,5.64-4.53,11.42-8.76,15.62l9.88-.16.22,5.76-19.45.12S52.84,118.54,52.74,118.24Z" />
</svg>