<svg xmlns="http://www.w3.org/2000/svg" 
viewBox="0 0 6.65 6.69">
   <path d="M3.44 6.69c-4.68,0 -4.47,-6.69 -0.08,-6.69 4.38,0 4.36,6.69 0.08,6.69zm-0.08 -6.21c-3.77,0 -3.95,5.73 0.06,5.73 3.67,0 3.69,-5.73 -0.06,-5.73zm2.41 3.2l-0.81 0.16 -0.08 -0.59 0.89 0 0 0.43zm-2.7 0.36l-1.07 -1.15 0.22 -0.28 1.1 0.6 1.89 -1.49 0.16 0.22 -1.8 2.04 -0.5 0.06zm0.27 -3l0.49 -0.04 0.04 0.92 -0.51 -0.03 -0.02 -0.85zm-0.59 0l0.31 0 0.08 0.88 -0.47 -0.08 0.08 -0.8zm-1.86 2.36l0.88 -0.15 0.07 0.59 -0.87 0 -0.08 -0.44zm2.8 2.32l-0.44 0.13 -0.15 -0.87 0.59 -0.05 0 0.79z"/>
</svg>
