<svg xmlns="http://www.w3.org/2000/svg" viewBox="0 0 39.08 27.86">
  <path d="M8.11 14.63l5.87 -2.59 2.42 -5.61 -3.56 1.22 -4.35 -1.84 -2.14 1.45 -0.19 -0.04c-0.01,-0.01 -3.17,-0.7 -4.18,-0.91 -0.37,0.46 -0.61,0.98 -0.72,1.54 -0.17,0.83 -0.07,1.73 0.24,2.58 0.32,0.87 0.85,1.68 1.53,2.32 0.67,0.63 1.48,1.09 2.38,1.27l2.7 0.61zm22.34 5.61l1.74 -3.53 -0.23 -0.25c-1.19,0.86 -2.5,1.53 -3.87,2 -1.5,0.52 -3.08,0.81 -4.68,0.83l-0.01 0c-2.63,0 -4.51,-0.74 -5.9,-1.78 -1.22,-0.91 -2.03,-2.05 -2.63,-3.09l-5.7 3.14 -1.38 6.99c-1.63,0.18 -4.2,0.64 -5.71,0.64 -0.35,0 -0.61,0.19 -0.79,0.5 -0.2,0.33 -0.32,0.78 -0.36,1.26l31.75 -0.06 -2.31 -6.48 0.08 -0.17zm0.45 7.56c-10.3,0.02 -20.6,0.04 -30.9,0.06l0 -0.45c0,-0.8 0.16,-1.61 0.52,-2.2 0.34,-0.56 0.85,-0.92 1.54,-0.93l4.97 -0.55 1.34 -6.76 6.86 -3.78 0.21 0.4c0.57,1.06 1.36,2.27 2.61,3.2l0.03 0.03c1.32,-3.55 3.45,-6.02 6.44,-6.6l0.49 -9.81 2.87 2.7 6.74 -0.2 3.56 -2.91 0.9 27.84 -8.18 -0.04zm3.6 -17.01c1.13,0 2.04,-0.91 2.04,-2.04 0,-1.12 -0.91,-2.04 -2.04,-2.04 -1.13,0 -2.04,0.92 -2.04,2.04 0,1.13 0.91,2.04 2.04,2.04zm-5.18 0c1.13,0 2.04,-0.91 2.04,-2.04 0,-1.12 -0.91,-2.04 -2.04,-2.04 -1.13,0 -2.04,0.92 -2.04,2.04 0,1.13 0.91,2.04 2.04,2.04zm-14.81 2.01l-6.3 2.78 -2.98 -0.67c-1.08,-0.22 -2.04,-0.77 -2.82,-1.51 -0.78,-0.73 -1.39,-1.67 -1.76,-2.66 -0.36,-1 -0.48,-2.07 -0.28,-3.07 0.16,-0.79 0.53,-1.54 1.12,-2.17l0.17 -0.18 0.25 0.04c0.42,0.09 3.47,0.76 4.26,0.93l2.22 -1.5 4.48 1.89 5.17 -1.76 -3.36 7.81 -0.17 0.07z"/>
</svg>
