<svg xmlns="http://www.w3.org/2000/svg"viewBox="0 0 471.21 97.91">
  <polygon class="fil0" points="20.14,58.88 15.39,67.84 15.39,97.91 0,97.91 0,0 15.39,0 15.39,42.66 35.81,0 50.91,0 29.51,43.64 50.91,97.91 35.11,97.91 "/>
  <path id="_1" class="fil0" d="M107.56 97.91l-15.53 0 -2.65 -17.77 -18.89 0 -2.65 17.77 -14.13 0 15.66 -97.91 22.52 0 15.67 97.91zm-35.11 -31.05l14.83 0 -7.42 -49.52 -7.41 49.52z"/>
  <polygon id="_2" class="fil0" points="157.77,83.92 170.22,83.92 170.22,0 185.74,0 185.74,97.91 114.55,97.91 114.55,0 129.8,0 129.8,83.92 142.38,83.92 142.38,0 157.77,0 "/>
  <polygon id="_3" class="fil0" points="192.74,0 240.29,0 240.29,13.99 224.21,13.99 224.21,97.91 208.82,97.91 208.82,13.99 192.74,13.99 "/>
  <path id="_4" class="fil0" d="M296.94 97.91l-15.53 0 -2.66 -17.77 -18.88 0 -2.65 17.77 -14.13 0 15.66 -97.91 22.52 0 15.67 97.91zm-35.11 -31.05l14.83 0 -7.42 -49.52 -7.41 49.52z"/>
  <polygon id="_5" class="fil0" points="319.32,97.91 303.93,97.91 303.93,0 319.32,0 319.32,41.96 336.8,41.96 336.8,0 352.46,0 352.46,97.91 336.8,97.91 336.8,55.95 319.32,55.95 "/>
  <polygon id="_6" class="fil0" points="383.79,58.88 379.04,67.84 379.04,97.91 363.65,97.91 363.65,0 379.04,0 379.04,42.66 399.46,0 414.57,0 393.17,43.64 414.57,97.91 398.76,97.91 "/>
  <path id="_7" class="fil0" d="M471.21 97.91l-15.52 0 -2.66 -17.77 -18.88 0 -2.66 17.77 -14.13 0 15.67 -97.91 22.52 0 15.66 97.91zm-35.1 -31.05l14.82 0 -7.41 -49.52 -7.41 49.52z"/>
</svg>
