<svg xmlns="http://www.w3.org/2000/svg" viewBox="0 -0.5 6.65 6.6">
   <path d="M6.22 4.98l-1.95 0.8 -1.72 -1.28 -2.55 0.56 0.43 -4.66 2.15 -0.4 1.95 1.28 2.12 -0.72 -0.43 4.42zm-0.36 -3.06l-0.13 0.62 -0.38 0.05 -0.29 0.56 -0.24 -0.34 -0.21 -0.02 -0.08 -0.05 -0.02 0.26 -0.22 0.1 -0.23 -0.32 -0.12 0.07 0.22 0.39 0.27 0.08 -0.28 0.32 -0.09 0.51 -0.55 0.13 -0.25 -0.35 -0.07 -0.62 -0.43 -0.23 -0.2 -0.43 0.04 -0.27 0.42 -0.22 0.45 0.3 0.49 -0.06 -0.01 -0.27 -0.31 -0.16 -0.04 0.24 -0.24 -0.03 -0.07 -0.29 -0.28 0.05 -0.17 -0.42 0.15 -0.17 0.17 0.16 0.22 0.01 0.3 -0.36 -1.21 -0.78 -0.4 0.07 0.05 0.09 0.06 0.37 -0.08 0.04 -0.51 -0.4 -0.19 0.04 -0.06 0.47 0.28 0.21 0.06 -0.38 0.39 0.34 -0.05 0.27 -0.32 0.22 -0.01 0.44 -0.25 -0.15 -0.34 -0.04 0.02 0.22 0.29 0.1 -0.27 0.19 -0.34 -0.2 -0.15 -0.4 -0.23 2.74 0.62 -0.15 0.29 -1.05 -0.16 -0.18 -0.08 -0.37 0.29 -0.42 0.78 0.43 -0.03 0.15 0.39 0.3 -0.28 0.39 -0.1 0.13 -0.21 0 -0.47 0.51 1.12 -0.27 1.71 1.26 1.62 -0.67 0.27 -2.92 -0.32 0.16zm-0.48 2.51l-0.19 -0.14 -0.4 0.32 -0.11 -0.44 0.4 -0.61 0.05 0.15 0.16 -0.02 0.06 -0.26 0.31 0.33 -0.01 0.46 -0.27 0.21z"/>
</svg>
