<svg xmlns="http://www.w3.org/2000/svg" viewBox="0 23 150 190">

    <path 
        d="M94.46,128.5l-4.79,0,.78,4.68,20.72,8.05-1.34,5.57-70.62.23L38,141.44l22.13-8.33.49-4.34-4.52,0c-7.21.05-10.91-4.83-11-9.84C30.8,116.09,32,94.54,49.81,94.42h.43L50.53,59H98.31V94.4h2.47c17-.12,18.48,21.71,4.07,24.28C104.87,123.61,101.42,128.45,94.46,128.5Zm-10,6.26c-.17-2.1-.45-6.42-.63-9.15A22.81,22.81,0,0,1,75.58,127a23.92,23.92,0,0,1-9-1.62c-.17,3-.46,8.07-.56,10.29C65.68,142.4,85,142.52,84.43,134.76ZM84.85,72l-6.5.09,0-6.85-6.63,0-.08,6.93-6.83.1.08,6.13,6.68.11-.07,6.78,6.9.32,0-7,7.22.13ZM56.2,91.88c.95,18.81,6.37,29.46,19,29.46s17-11.37,17.68-30Z" />
</svg>