<svg xmlns="http://www.w3.org/2000/svg" viewBox="0 10 150 190">
    <path 
        d="M106.52,51.35c-4,3.38-4.89,15.23-4.89,15.23H98.85s0-9.81-4.74-14.64S81,46.5,81,46.5l.28-3s10.08-1.08,13.35-4.39c4.52-4.55,4.06-12.95,4.06-12.95l2.83-.24s.5,9.39,4.39,13.28,13.9,4.27,13.9,4.27l.13,3.13S111.4,47.18,106.52,51.35ZM65.9,42.77H64.27s0-5.78-2.8-8.63-7.75-3.2-7.75-3.2l.16-1.75s5.95-.63,7.88-2.58C64.42,23.93,64.15,19,64.15,19l1.67-.14s.36,5.46,2.65,7.76,8.14,2.57,8.14,2.57L76.69,31s-5,.32-7.9,2.77C66.45,35.78,65.9,42.77,65.9,42.77Zm-5.22,6.61s-5,.33-7.9,2.78c-2.34,2-2.89,9-2.89,9H48.26s0-5.78-2.8-8.62-7.75-3.2-7.75-3.2l.16-1.75s6-.63,7.88-2.58c2.66-2.69,2.39-7.64,2.39-7.64l1.67-.13s.26,5.56,2.56,7.85,8.23,2.48,8.23,2.48Zm4,48.63-1.4-25.93L60.21,72l-.69-7.61,5.89-.06L64.05,56.2h5.52l3.56,6.9,2.61-6.9h9.58l-.66,7.87L90.75,64l-.35,9.16-4-.16L85,97.83c22.48,7.7,22.58,41.83,2.55,50.8L61.39,148C40.79,138.29,42.89,105.89,64.72,98Zm0,43.68,20,.41c14.65-7.42,14.56-36-5.9-39.08l.31-23.73H71.26l-.58,23.86C51,106.79,49.11,134.52,64.68,141.69Zm24-24.58c3.16,7.26.83,16.68-6.88,20.17-1.92-.05-11.18,0-14.06.05-6-2.88-8.53-9.13-7.94-15.07C79.62,123.71,71.39,112.88,88.64,117.11Z" />
</svg>