<svg xmlns="http://www.w3.org/2000/svg" viewBox="0 -0.4 6.65 5.7">
   <path d="M6.23 2.27l-1.2 -0.47 -0.1 -0.84 -3.19 -0.01 -0.13 0.85 -1.14 0.41c-0.35,0 -0.77,-0.52 -0.16,-1.54 0.82,-0.33 1.15,-0.67 2.95,-0.67 1.8,0 2.23,0.35 3.05,0.69 0.67,1.04 0.18,1.59 -0.08,1.58zm-4.24 -0.94l0.53 -0.1 0.13 0.35 1.34 -0.03 0.07 -0.28 0.56 0.04c0,1.23 0.86,2.22 1.21,2.22l0.17 1.66 -0.66 -0.01 -0.24 -0.33 -3.55 0.01 -0.3 0.28 -0.55 -0.01 0.07 -1.53c0.4,0 1.22,-1.12 1.22,-2.27zm1.34 2.86c1.22,0 1.22,-1.9 -0.02,-1.9 -1.24,0 -1.3,1.9 0.02,1.9z"/>
</svg>
