<svg xmlns="http://www.w3.org/2000/svg" viewBox="0 23 150 190">
    <path 
        d="M94.46,128.5l-4.79,0,.78,4.68,20.72,8.05-1.34,5.57-70.62.23L38,141.44l22.13-8.33.49-4.34-4.52,0c-7.21.05-10.91-4.83-11-9.84-13.4-2.69-13.27-21.67,1.37-24.26C44.42,79,54.31,61.53,75.14,61.53c20.66,0,29.89,17.35,27.92,33,14.86,1.74,15.54,21.71,1.79,24.15C104.87,123.61,101.42,128.45,94.46,128.5Zm-10,6.26c-.17-2.1-.45-6.42-.63-9.15A22.81,22.81,0,0,1,75.58,127a23.92,23.92,0,0,1-9-1.62c-.17,3-.46,8.07-.56,10.29C65.68,142.4,85,142.52,84.43,134.76ZM91.09,89c-2.09,2.52-5.93,5.82-9,6.26,1.21-4.51,2.09-10.44,1.32-13C78.78,88.89,67.64,95,56.29,93.46c1.17,17.83,6.64,27.88,18.93,27.88,12.47,0,16.81-10.89,17.63-28.84A11.62,11.62,0,0,0,91.09,89ZM103,47.45,93.61,60.24,75.07,55.41,72.54,39.22c-4.51-.53-5.5-7.54-.42-8.9s7.59,5.62,3.86,8.1c1.79,7.23,6.65,8.07,10.81,1.18-3.67-2.7-1-9.29,4.07-7.93s3.76,8.62-.68,8.94c.34,7.39,3.27,9.53,10.32,4.5-2.29-4.27,3.49-9,7.32-5.17S107,49.09,103,47.45Z" />
</svg>