<svg xmlns="http://www.w3.org/2000/svg" viewBox="0 0 6.99 8.67">
  <path d="M5.51 7.96c-1.15,0 -1.66,0.29 -2.01,0.71 -0.36,-0.42 -0.87,-0.71 -2.02,-0.71 -0.89,0 -1.48,-0.22 -1.48,-1.3l0 -6.66 6.99 0 0 6.66c0,1.08 -0.6,1.3 -1.48,1.3zm-3.44 -0.96l-0.11 -0.53c-0.47,0.05 -0.66,0 -0.66,-0.25 0,-0.27 0.21,-0.5 -0.3,-0.69 0.28,0.41 -0.09,0.49 -0.09,0.91 0,0.34 0.39,0.65 1.16,0.56zm0.8 -5.82c0.06,0.47 0.73,0.52 0.73,-0.04 0,-0.54 -0.79,-0.44 -0.73,0.04zm2.38 0.67c-0.57,-0.17 -1,0.01 -1.24,0.47l-0.08 -0.15c-0.14,-0.29 -0.26,-0.42 -0.61,-0.42 -0.07,0 -0.29,0 -0.44,0l1.76 3.91 0.2 -0.01 -0.48 -1.57 0.43 -0.59 0.12 -0.72 0.74 0.29 0.17 -0.26 -0.57 -0.95zm-0.2 2.22l0.31 0.68 0.2 -0.08 -0.25 -1 -0.45 -0.01 -0.3 0.45 0.49 -0.04zm0.9 1.4l0.11 0.29c-0.11,0.24 -0.47,0.15 -0.47,0.15l0.14 -0.46 -0.21 -0.06c-0.08,0.29 -0.38,0.53 -0.71,0.63l0.17 0.4 -0.11 0.13 -2.4 -5.32 -0.1 -0.03 0.14 -0.22c0,0 -0.01,-0.16 -0.22,-0.13l-0.18 -0.41 -0.2 0.1 0.2 0.43c-0.03,0.05 -0.05,0.12 -0.05,0.18 0,0.03 0,0.05 0.01,0.08 0.06,0.28 0.14,0.55 0.19,0.69 0.06,0.18 0.14,0.27 0.32,0.27l0.09 0 0.28 0.6 0 0.11 -0.7 -0.01 0 -0.01c-0.35,-0.48 -1.63,-0.44 -1.37,1.13l0.61 -0.14c0,-0.9 0.3,-0.94 0.5,-0.84l-0.01 0.95 -0.31 0.41 -0.04 1.23 0.23 0 0.22 -1.02 0.7 -0.43 0.8 -0.01 0.87 1.9c-0.09,-0.01 -0.18,-0.04 -0.27,-0.08l-0.1 -0.2c-0.14,-0.33 -0.33,-0.51 -0.52,-0.35l0.13 0.14 0.03 0.19c-0.15,-0.05 -0.34,-0.09 -0.69,-0.09 -0.73,0 -0.89,0.54 -0.89,0.76 0,0.48 0.35,0.76 0.71,0.76 0.6,0 0.65,-0.46 0.65,-0.6 0,-0.31 -0.16,-0.4 -0.31,-0.4 -0.29,0 -0.25,0.34 -0.16,0.41l-0.08 0.08c-0.23,-0.17 -0.15,-0.65 0.25,-0.65 0.27,0 0.58,0.19 0.42,0.81 0.2,0 0.4,0.25 0.24,0.56 0.2,-0.13 0.55,0.05 0.52,0.31 0.66,-0.27 0.94,-0.75 0.95,-1.11l0.15 -0.08 -0.01 0.31c0.15,-0.11 0.25,-0.28 0.28,-0.46l0.12 -0.06 -0.01 0.3c0.2,-0.12 0.36,-0.36 0.47,-1.04l-0.38 -0.1zm-3.43 -0.9l0.07 1.03 0.25 -0.08 0.09 -0.84 0.54 -0.34 -0.66 0.01 -0.29 0.22zm1.44 1.67l-0.15 -0.15c0.21,-0.17 0.41,0.03 0.56,0.37l-0.37 0.04 -0.04 -0.26z"/>
</svg>
